<?xml version="1.0" standalone="no"?><!DOCTYPE svg PUBLIC "-//W3C//DTD SVG 1.1//EN" "http://www.w3.org/Graphics/SVG/1.1/DTD/svg11.dtd"><svg t="1552884083229" class="icon" style="" viewBox="0 0 1558 1024" version="1.1" xmlns="http://www.w3.org/2000/svg" p-id="2249" xmlns:xlink="http://www.w3.org/1999/xlink" width="304.296875" height="200"><defs><style type="text/css"></style></defs><path d="M474.898551 727.188406h14.840579l-14.840579 14.84058v-14.84058z m0 0V593.623188h14.840579v148.405798H378.434783V593.623188h14.840579v133.565218h81.623189z m-81.623189 0v14.84058l-14.840579-14.84058h14.840579z m0 0v14.84058l-14.840579-14.84058h14.840579z m0 0h81.623189V593.623188h14.840579v148.405798H378.434783V593.623188h14.840579v133.565218z m81.623189 0h14.840579l-14.840579 14.84058v-14.84058zM652.985507 853.333333h14.84058l-14.84058 14.84058v-14.84058z m0 0V712.347826h14.84058v155.826087H556.521739V712.347826h14.84058v140.985507h81.623188z m-81.623188 0v14.84058l-14.84058-14.84058h14.84058z m0 0v14.84058l-14.84058-14.84058h14.84058z m0 0h81.623188V712.347826h14.84058v155.826087H556.521739V712.347826h14.84058v140.985507z m81.623188 0h14.84058l-14.84058 14.84058v-14.84058zM652.985507 667.826087h14.84058l-14.84058 14.84058v-14.84058z m0 0V593.623188h14.84058v89.043479H556.521739V593.623188h14.84058v74.202899h81.623188z m-81.623188 0v14.84058l-14.84058-14.84058h14.84058z m0 0v14.84058l-14.84058-14.84058h14.84058z m0 0h81.623188V593.623188h14.84058v89.043479H556.521739V593.623188h14.84058v74.202899z m81.623188 0h14.84058l-14.84058 14.84058v-14.84058zM1009.15942 986.898551h14.84058l-14.84058 14.840579v-14.840579z m0 0v-51.942029h14.84058v66.782608h-118.724638v-66.782608h14.84058v51.942029h89.043478z m-89.043478 0v14.840579l-14.84058-14.840579h14.84058z m0 0v14.840579l-14.84058-14.840579h14.84058z m0 0h89.043478v-51.942029h14.84058v66.782608h-118.724638v-66.782608h14.84058v51.942029z m89.043478 0h14.84058l-14.84058 14.840579v-14.840579zM1009.15942 712.347826h14.84058l-14.84058 14.84058v-14.84058z m0 0V593.623188h14.84058v133.565218h-118.724638V593.623188h14.84058v118.724638h89.043478z m-89.043478 0v14.84058l-14.84058-14.84058h14.84058z m0 0v14.84058l-14.84058-14.84058h14.84058z m0 0h89.043478V593.623188h14.84058v133.565218h-118.724638V593.623188h14.84058v118.724638z m89.043478 0h14.84058l-14.84058 14.84058v-14.84058zM1187.246377 764.289855h14.84058l-14.84058 14.84058v-14.84058z m0 0V586.202899h14.84058v192.927536h-118.724638V586.202899h14.84058v178.086956h89.043478z m-89.043478 0v14.84058l-14.84058-14.84058h14.84058z m0 0v14.84058l-14.84058-14.84058h14.84058z m0 0h89.043478V586.202899h14.84058v192.927536h-118.724638V586.202899h14.84058v178.086956z m89.043478 0h14.84058l-14.84058 14.84058v-14.84058zM1187.246377 1009.15942h14.84058l-14.84058 14.84058v-14.84058z m0 0v-192.927536h14.84058v207.768116h-118.724638v-207.768116h14.84058v192.927536h89.043478z m-89.043478 0v14.84058l-14.84058-14.84058h14.84058z m0 0v14.84058l-14.84058-14.84058h14.84058z m0 0h89.043478v-192.927536h14.84058v207.768116h-118.724638v-207.768116h14.84058v192.927536z m89.043478 0h14.84058l-14.84058 14.84058v-14.84058zM1009.15942 890.434783h14.84058l-14.84058 14.840579v-14.840579z m0 0v-133.565218h14.84058v148.405797h-118.724638v-148.405797h14.84058v133.565218h89.043478z m-89.043478 0v14.840579l-14.84058-14.840579h14.84058z m0 0v14.840579l-14.84058-14.840579h14.84058z m0 0h89.043478v-133.565218h14.84058v148.405797h-118.724638v-148.405797h14.84058v133.565218z m89.043478 0h14.84058l-14.84058 14.840579v-14.840579zM831.072464 912.695652h14.840579l-14.840579 14.84058v-14.84058z m0 0V593.623188h14.840579v333.913044H727.188406V593.623188h14.84058v319.072464h89.043478z m-89.043478 0v14.84058l-14.84058-14.84058h14.84058z m0 0v14.84058l-14.84058-14.84058h14.84058z m0 0h89.043478V593.623188h14.840579v333.913044H727.188406V593.623188h14.84058v319.072464z m89.043478 0h14.840579l-14.840579 14.84058v-14.84058z" p-id="2250" fill="#2c2c2c"></path><path d="M0 489.73913v-14.840579h1558.26087v14.840579H0z m0 74.202899v-14.84058h1558.26087v14.84058H0z" p-id="2251" fill="#2c2c2c"></path><path d="M489.73913 97.725217v207.768116h178.086957v-207.768116H489.73913z m-14.840579-14.840579h207.768116v237.449275H474.898551v-237.449275zM742.028986 96.463768v-14.84058h356.173913v14.84058h-356.173913z m0.051942 76.710957l-0.103885-14.84058 356.173914-2.508058 0.103884 14.84058-356.173913 2.508058zM742.028986 248.520348v-14.84058h357.405681v14.84058H742.028986z m0 75.345623v-14.84058h356.173913v14.84058h-356.173913z m0 75.345623v-14.84058h356.173913v14.84058h-356.173913z" p-id="2252" fill="#2c2c2c"></path><path d="M393.275362 14.84058h-14.840579l14.840579-14.84058v14.84058z m0 0h786.550725v474.89855h14.84058V0H378.434783v489.73913h14.840579V14.84058z m786.550725 0V0l14.84058 14.84058h-14.84058z m0 0V0l14.84058 14.84058h-14.84058z m0 0v474.89855h14.84058V0H378.434783v489.73913h14.840579V14.84058h786.550725zM393.275362 14.84058h-14.840579l14.840579-14.84058v14.84058z" p-id="2253" fill="#2c2c2c"></path></svg>