<?xml version="1.0" standalone="no"?><!DOCTYPE svg PUBLIC "-//W3C//DTD SVG 1.1//EN" "http://www.w3.org/Graphics/SVG/1.1/DTD/svg11.dtd"><svg t="1554133656650" class="icon" style="" viewBox="0 0 1126 1024" version="1.1" xmlns="http://www.w3.org/2000/svg" p-id="2586" xmlns:xlink="http://www.w3.org/1999/xlink" width="219.921875" height="200"><defs><style type="text/css"></style></defs><path d="M35.359 374.462c0 35.453 12.193 62.495 36.035 78.208-14.467 8.194-35.776 48.705-35.776 84.482 1.44 59.103 58.623 102.912 144.962 102.912h228.927c-39.198 106.689-31.806 250.562 17.344 327.358 29.599 46.213 65.151 56.579 89.824 56.579 83.071 0 85.791-80.034 85.791-107.265 0-91.070 13.154-132.574 29.536-170.845 12.993-24.771 92.514-106.24 173.76-106.24h152.256c58.785 0 101.41-49.219 101.314-119.269l-39.488-416.67c-4.77-64.194-36.289-103.072-99.521-103.072 0 0-31.489-0.26-55.074-0.26-12.031 0-23.261 0.099-29.916 0.26-19.489 0.64-35.553 13.12-49.761 23.614-10.049 7.393-18.018 13.829-25.249 13.829-3.233 0-21.693-10.596-44.351-20.225-23.105-9.763-59.745-17.856-94.785-17.856h-318.433c-106.753 0-158.013 40-158.014 106.689 0 19.714 4.541 31.393 15.484 46.656-42.846 10.268-80.86 37.213-80.86 83.676 0 17.251 8.125 44.961 19.229 52.317-20.957 5.348-63.296 42.725-63.233 85.124v0zM836.9 42.619c19.071-0.604 87.485 0 87.934 0 24.547 0 46.303 23.136 51.841 54.21l39.488 433.155c0 32.412-26.079 67.935-60.894 67.935v-0.225l-149.507-0.449c-2.558 0-5.088 0.321-7.618 0.415v-529.889c6.914-4.83 13.379-9.503 17.988-12.896 6.334-4.673 16.924-11.806 20.768-12.258v0zM138.691 317.695h5.791l-0.543-38.658c-4.644-1.758-21.763-6.909-21.793-40.513 0-35.996 47.295-50.464 87.134-50.463h-0.098l0.674-36.831c-16.225-3.614-22.045-17.793-22.016-40.449 0-39.615 32.192-68.16 115.81-68.159h329.763c15.771 0 47.808 9.186 66.269 18.116 17.408 8.413 45.313 24.16 54.946 29.375v514.562c-82.915 22.974-151.363 94.493-168.643 127.52-18.784 43.676-28.193 89.339-28.193 189.502 0 49.761-18.273 56.45-37.725 56.45-17.217 0-44.575-18.979-58.403-40.61-40.928-63.901-50.494-201.568 0.42-304.673l8.765-35.679-292.257 0.064c-49.761-2.72-99.775-23.071-99.776-59.776l0.351-11.489c-0.161-0.479 1.216-31.806 17.891-45.63 13.985-11.616 25.313-12.004 25.313-12.004l0.317-38.046c0 0-16.864-2.27-25.664-8.32-13.248-9.088-19.263-26.304-18.56-45.118 0.864-23.808 37.665-59.169 60.224-59.169v0zM138.691 317.695z" p-id="2587" fill="#1296db"></path></svg>