<?xml version="1.0" standalone="no"?><!DOCTYPE svg PUBLIC "-//W3C//DTD SVG 1.1//EN" "http://www.w3.org/Graphics/SVG/1.1/DTD/svg11.dtd"><svg t="1554176739993" class="icon" style="" viewBox="0 0 1024 1024" version="1.1" xmlns="http://www.w3.org/2000/svg" p-id="2190" xmlns:xlink="http://www.w3.org/1999/xlink" width="200" height="200"><defs><style type="text/css"></style></defs><path d="M484.352 543.744c136.192 0 246.272-110.592 246.272-246.272 0-136.192-110.08-246.272-246.272-246.272S237.568 161.28 237.568 297.472s110.592 246.272 246.784 246.272z m111.616-197.12S583.168 416.768 481.28 416.768 372.224 346.624 372.224 346.624h223.744zM498.176 772.608c0-76.288 38.4-143.36 96.768-183.808-35.328-10.752-72.704-16.384-111.104-16.384-190.976 0-349.696 139.264-380.416 321.536-5.632 33.792 21.504 64 55.296 64h438.784c-59.392-39.936-99.328-108.032-99.328-185.344z" fill="" p-id="2191"></path><path d="M720.896 572.416c-110.592 0-200.192 89.6-200.192 200.192s89.6 200.192 200.192 200.192 200.192-89.6 200.192-200.192-89.6-200.192-200.192-200.192z m99.328 272.896c7.168 7.168 7.168 19.456 0 26.624-3.584 3.584-8.704 5.632-13.312 5.632s-9.728-2.048-13.312-5.632l-72.704-72.704-72.704 72.704c-3.584 3.584-8.704 5.632-13.312 5.632s-9.728-2.048-13.312-5.632c-7.168-7.168-7.168-19.456 0-26.624l72.704-72.704-72.704-72.704c-7.168-7.168-7.168-19.456 0-26.624s19.456-7.168 26.624 0l72.704 72.704 72.704-72.704c7.168-7.168 19.456-7.168 26.624 0s7.168 19.456 0 26.624L747.52 772.608l72.704 72.704z" fill="" p-id="2192"></path></svg>