<?xml version="1.0" standalone="no"?><!DOCTYPE svg PUBLIC "-//W3C//DTD SVG 1.1//EN" "http://www.w3.org/Graphics/SVG/1.1/DTD/svg11.dtd"><svg t="1554176062868" class="icon" style="" viewBox="0 0 1024 1024" version="1.1" xmlns="http://www.w3.org/2000/svg" p-id="1722" xmlns:xlink="http://www.w3.org/1999/xlink" width="200" height="200"><defs><style type="text/css"></style></defs><path d="M507.2 512m-436 0a436 436 0 1 0 872 0 436 436 0 1 0-872 0Z" fill="#F2F2F2" p-id="1723"></path><path d="M151.2 916h164" fill="#FFFFFF" p-id="1724"></path><path d="M315.2 922h-164c-3.2 0-6-2.8-6-6s2.8-6 6-6h164c3.2 0 6 2.8 6 6s-2.8 6-6 6z" fill="#333333" p-id="1725"></path><path d="M531.2 916h100" fill="#FFFFFF" p-id="1726"></path><path d="M631.2 922h-100c-3.2 0-6-2.8-6-6s2.8-6 6-6h100c3.2 0 6 2.8 6 6s-2.8 6-6 6z" fill="#333333" p-id="1727"></path><path d="M359.2 916h136" fill="#FFFFFF" p-id="1728"></path><path d="M495.2 922h-136c-3.2 0-6-2.8-6-6s2.8-6 6-6h136c3.2 0 6 2.8 6 6s-2.8 6-6 6z" fill="#333333" p-id="1729"></path><path d="M679.2 916h220" fill="#FFFFFF" p-id="1730"></path><path d="M899.2 922h-220c-3.2 0-6-2.8-6-6s2.8-6 6-6h220c3.2 0 6 2.8 6 6s-2.8 6-6 6z" fill="#333333" p-id="1731"></path><path d="M540.8 196c-12 0-22-10-22-22s10-22 22-22 22 10 22 22-9.6 22-22 22z m0-36c-7.6 0-14 6.4-14 14s6.4 14 14 14 14-6.4 14-14-6-14-14-14zM868.8 540c-12 0-22-10-22-22s10-22 22-22 22 10 22 22c0.4 12-9.6 22-22 22z m0-36c-7.6 0-14 6.4-14 14s6.4 14 14 14 14-6.4 14-14-6-14-14-14zM296.8 520c-12 0-22-10-22-22s10-22 22-22 22 10 22 22-9.6 22-22 22z m0-36c-7.6 0-14 6.4-14 14s6.4 14 14 14 14-6.4 14-14-6-14-14-14z" fill="#CECECE" p-id="1732"></path><path d="M302.840669 670.572807a8 8 0 1 0 8.515148-13.545931 8 8 0 1 0-8.515148 13.545931Z" fill="#CECECE" p-id="1733"></path><path d="M374.832736 242.590452a8 8 0 1 0 8.515148-13.545932 8 8 0 1 0-8.515148 13.545932Z" fill="#CECECE" p-id="1734"></path><path d="M562.827123 382.580292a8 8 0 1 0 8.515148-13.545931 8 8 0 1 0-8.515148 13.545931Z" fill="#CECECE" p-id="1735"></path><path d="M782.819638 654.566746a8 8 0 1 0 8.515148-13.545931 8 8 0 1 0-8.515148 13.545931Z" fill="#CECECE" p-id="1736"></path><path d="M717.6 542.8c-1.2 0-2-0.4-2.8-1.2l-25.6-25.6c-1.6-1.6-1.6-4 0-5.6s4-1.6 5.6 0l25.6 25.6c1.6 1.6 1.6 4 0 5.6-0.8 0.8-1.6 1.2-2.8 1.2z" fill="#CECECE" p-id="1737"></path><path d="M692.4 542.8c-1.2 0-2-0.4-2.8-1.2-1.6-1.6-1.6-4 0-5.6l25.6-25.6c1.6-1.6 4-1.6 5.6 0s1.6 4 0 5.6l-25.6 25.6c-0.8 0.8-2 1.2-2.8 1.2z" fill="#CECECE" p-id="1738"></path><path d="M208.8 308c-2.4 0-4-1.6-4-4v-36c0-2.4 1.6-4 4-4s4 1.6 4 4v36c0 2.4-1.6 4-4 4z" fill="#CECECE" p-id="1739"></path><path d="M227.2 290h-36c-2.4 0-4-1.6-4-4s1.6-4 4-4h36c2.4 0 4 1.6 4 4s-2 4-4 4z" fill="#CECECE" p-id="1740"></path><path d="M550.8 554.8l-10-57.6c-1.2-7.6-8.4-12.4-16-11.2L468 496c-2.8-6-6-11.6-10-17.2l37.2-44c4.8-5.6 4-14.4-1.6-19.2l-44.8-37.6c-5.6-4.8-14.4-4-19.2 1.6l-37.2 44c-6-2.8-12-4.8-18.4-6.8V359.6c0-7.6-6-13.6-13.6-13.6H302c-7.6 0-13.6 6-13.6 13.6v57.6c-6.4 2-12.4 4-18.4 6.8l-37.2-44c-4.8-5.6-13.6-6.4-19.2-1.6L168.8 416c-5.6 4.8-6.4 13.6-1.6 19.2l37.2 44c-3.6 5.6-6.8 11.2-10 17.2l-56.8-10c-7.6-1.2-14.4 3.6-16 11.2l-10 57.6c-1.2 7.6 3.6 14.4 11.2 16l56.8 10c0.8 6.4 2 13.2 3.6 19.2l-50 28.8c-6.4 3.6-8.8 12.4-5.2 18.8l29.2 50.4c3.6 6.4 12.4 8.8 18.8 5.2l50-28.8c2 2 4.4 4 6.8 6 2.8 2.4 5.6 4.4 8.4 6.4l-19.6 54c-2.4 7.2 1.2 15.2 8.4 17.6l54.8 20c7.2 2.4 15.2-1.2 17.6-8.4l19.6-54.4c3.2 0.4 6.4 0.4 10 0.4s6.4 0 10-0.4l19.6 54.4c2.4 7.2 10.4 10.8 17.6 8.4l54.8-20c7.2-2.4 10.8-10.4 8.4-17.6l-19.6-54c5.2-4 10.4-8 15.2-12.8l50 28.8c6.4 3.6 14.8 1.6 18.8-5.2l29.2-50.4c3.6-6.4 1.6-14.8-5.2-18.8l-50-28.8c1.6-6.4 2.8-12.8 3.6-19.2l56.8-10c6-1.6 10.8-8.8 9.6-16z" fill="#FFFFFF" p-id="1741"></path><path d="M288.4 785.6c-2.4 0-4.4-0.4-6.8-1.2l-54.8-20c-4.8-1.6-8.8-5.6-11.2-10.4-2.4-4.8-2.4-10-0.8-15.2l18.4-50c-1.6-1.2-3.2-2.8-4.8-4-1.2-1.2-2.4-2-3.6-3.2l-46 26.8c-9.6 5.6-21.6 2-26.8-7.2l-29.2-50.4c-2.8-4.4-3.2-10-2-14.8s4.8-9.2 9.2-12l46-26.8c-0.8-3.6-1.6-7.6-2-11.2l-52.4-9.2c-5.2-0.8-9.6-4-12.8-8-3.2-4.4-4-9.6-3.2-14.8l10-57.6c0.8-5.2 3.6-9.6 8-12.8 4.4-3.2 9.6-4 14.8-3.2l52.4 9.2c1.6-3.2 3.6-6.8 5.6-10l-34.4-40.8c-3.2-4-4.8-9.2-4.4-14.4s2.8-10 6.8-13.2l44.8-37.6c8.4-6.8 20.8-6 28 2.4l34.4 40.8c3.6-1.6 7.2-2.8 10.8-4V359.6c0-10.8 8.8-19.6 19.6-19.6H360c10.8 0 19.6 8.8 19.6 19.6v53.2c3.6 1.2 7.2 2.4 10.8 4l34.4-40.8c6.8-8.4 19.6-9.6 28-2.4l44.8 37.6c4 3.2 6.4 8 6.8 13.2s-1.2 10.4-4.4 14.4l-34.4 40.8c2 3.2 4 6.4 5.6 10l52.4-9.2c10.8-2 20.8 5.2 22.8 16l10 57.6c2 10.8-5.2 20.8-16 22.8l-52.4 9.2c-0.4 3.6-1.2 7.6-2 11.2L532 624c4.4 2.8 8 6.8 9.2 12 1.2 5.2 0.8 10.4-2 14.8l-29.2 50.4c-5.6 9.6-17.6 12.8-26.8 7.2l-46-26.8c-2.8 2.4-5.6 5.2-8.8 7.2l18.4 50c1.6 4.8 1.6 10.4-0.8 15.2-2.4 4.8-6 8.4-11.2 10.4l-54.8 20c-10.4 3.6-21.6-1.6-25.2-11.6l-18.4-50h-11.2l-18.4 50c-2.8 7.6-10.4 12.8-18.4 12.8z m-62-118.8l3.2 3.2c2 2 4.4 4 6.4 6 2.4 2 5.2 4.4 8 6.4l3.6 2.8-21.2 58.4c-0.8 2-0.8 4 0.4 6 0.8 2 2.4 3.2 4.4 4l54.8 20c4 1.6 8.4-0.8 10-4.8l21.2-58.4 4.4 0.4c7.2 0.4 11.6 0.4 18.8 0l4.4-0.4 21.2 58.4c1.6 4 6 6 10 4.8l54.8-20c2-0.8 3.6-2 4.4-4 0.8-2 0.8-4 0.4-6l-21.2-58.4 3.6-2.8c4.8-3.6 10-7.6 14.4-12l3.2-3.2 54 31.2c3.6 2 8.4 0.8 10.4-2.8l29.2-50.4c1.2-1.6 1.2-4 0.8-6-0.4-2-2-3.6-3.6-4.8l-54-31.2 1.2-4.4c1.6-6 2.4-12.4 3.2-18.4l0.4-4.4 61.2-10.8c4.4-0.8 7.2-4.8 6.4-8.8l-10-57.6c-0.8-4-4.8-7.2-8.8-6.4l-61.2 10.8-2-4c-2.8-5.6-6-11.2-9.6-16.4l-2.4-3.6 40-47.6c1.2-1.6 2-3.6 1.6-5.6 0-2-1.2-4-2.8-5.2l-44.8-37.6c-3.2-2.8-8-2.4-10.8 0.8l-40 47.6-4-2c-5.6-2.4-11.6-4.8-17.6-6.4l-4.4-1.2V359.6c0-4.4-3.6-7.6-7.6-7.6H302c-4.4 0-7.6 3.6-7.6 7.6v62l-4.4 1.2c-6 1.6-12 4-17.6 6.4l-4 2L228 383.6c-2.8-3.2-7.6-3.6-10.8-0.8L172.4 420c-1.6 1.2-2.4 3.2-2.8 5.2 0 2 0.4 4 1.6 5.6l40 47.6-2.4 3.6c-3.6 5.2-6.8 10.8-9.6 16.4l-2 4-60.8-10.4c-2-0.4-4 0-5.6 1.2s-2.8 2.8-3.2 4.8l-10 57.6c-0.4 2 0 4 1.2 5.6 1.2 1.6 2.8 2.8 4.8 3.2l61.2 10.8 0.4 4.4c0.8 6 1.6 12.4 3.2 18.4l1.2 4.4-54 31.2c-1.6 1.2-3.2 2.8-3.6 4.8-0.4 2-0.4 4 0.8 6l29.2 50.4c2 3.6 6.8 4.8 10.4 2.8l54-30.8z" fill="#333333" p-id="1742"></path><path d="M254 607.6c-5.6-9.6-8.8-20-10.4-30.8-2.8-22.4 2.8-45.6 17.6-64.8 29.2-37.2 83.6-44 120.8-14.4 37.2 29.2 44 83.6 14.4 120.8-19.6 25.2-50.8 36.4-80.4 32-7.2-1.2-14-3.2-20.8-6" fill="#FFFFFF" p-id="1743"></path><path d="M328.4 656.8c-4.4 0-9.2-0.4-13.6-1.2-7.6-1.2-15.2-3.2-22.4-6.4-3.2-1.2-4.4-4.8-3.2-8 1.2-3.2 4.8-4.4 8-3.2 6.4 2.8 12.8 4.4 19.6 5.6 28.4 4.4 57.2-7.2 74.8-29.6 27.2-34.8 21.2-85.2-13.6-112.4-34.8-27.2-85.2-21.2-112.4 13.6-13.6 17.2-19.2 38.4-16.4 60 1.2 10.4 4.8 20 9.6 28.8 1.6 2.8 0.8 6.4-2.4 8-2.8 1.6-6.4 0.8-8-2.4-6-10.4-9.6-21.2-11.2-33.2-3.2-24.8 3.2-49.6 18.8-69.2 31.2-40 89.2-46.8 129.2-15.6 40 31.2 46.8 89.2 15.6 129.2-17.6 23.2-44.4 36-72.4 36z" fill="#333333" p-id="1744"></path><path d="M774 794.4l-5.6-31.2c-0.8-4-4.4-6.8-8.8-6l-30.8 5.6c-1.6-3.2-3.2-6.4-5.2-9.2l20-24c2.8-3.2 2.4-8-0.8-10.4l-24-20.4c-3.2-2.8-8-2.4-10.4 0.8l-20 24c-3.2-1.6-6.4-2.8-10-3.6v-31.2c0-4-3.2-7.6-7.6-7.6h-31.6c-4 0-7.6 3.2-7.6 7.6v31.2c-3.6 1.2-6.8 2.4-10 3.6l-20-24c-2.8-3.2-7.2-3.6-10.4-0.8l-24 20.4c-3.2 2.8-3.6 7.2-0.8 10.4l20 24c-2 2.8-3.6 6-5.2 9.2l-30.8-5.6c-4-0.8-8 2-8.8 6l-5.6 31.2c-0.8 4 2 8 6 8.8l30.8 5.6c0.4 3.6 1.2 7.2 2 10.4l-27.2 15.6c-3.6 2-4.8 6.8-2.8 10l15.6 27.2c2 3.6 6.8 4.8 10 2.8l27.2-15.6c1.2 1.2 2.4 2.4 3.6 3.2 1.6 1.2 2.8 2.4 4.4 3.6l-10.8 29.2c-1.2 4 0.8 8 4.4 9.6l29.6 10.8c4 1.2 8-0.8 9.6-4.4l10.8-29.2h10.4l10.8 29.2c1.2 4 5.6 6 9.6 4.4l29.6-10.8c4-1.2 6-5.6 4.4-9.6l-10.8-29.2c2.8-2 5.6-4.4 8-6.8l27.2 15.6c3.6 2 8 0.8 10-2.8l15.6-27.2c2-3.6 0.8-8-2.8-10l-27.2-15.6c0.8-3.6 1.6-6.8 2-10.4l30.8-5.6c5.2-0.8 8-4.8 7.2-8.8z" fill="#FFFFFF" p-id="1745"></path><path d="M632 921.2c-1.6 0-2.8-0.4-4.4-0.8l-29.6-10.8c-3.2-1.2-5.6-3.6-7.2-6.4s-1.6-6.4-0.4-9.6l9.6-26c-0.4-0.4-1.2-0.8-1.6-1.6-0.4-0.4-0.8-0.8-1.2-0.8l-24 13.6c-6 3.6-13.6 1.2-16.8-4.4l-15.6-27.2c-1.6-2.8-2-6.4-1.2-9.6 0.8-3.2 2.8-6 5.6-7.6l24-13.6c-0.4-1.2-0.4-2.4-0.8-3.6l-27.2-4.8c-3.2-0.4-6-2.4-8-5.2-2-2.8-2.8-6-2-9.2l5.6-31.2c1.2-6.8 7.6-11.2 14.4-10l27.2 4.8c0.8-1.2 1.2-2 2-3.2l-17.6-21.2c-2-2.4-3.2-5.6-2.8-9.2 0.4-3.2 2-6.4 4.4-8.4l24-20.4c2.4-2 5.6-3.2 9.2-2.8 3.2 0.4 6.4 2 8.4 4.4l17.6 21.2 3.6-1.2v-27.6c0-6.8 5.6-12.4 12.4-12.4h31.6c6.8 0 12.4 5.6 12.4 12.4v27.6l3.6 1.2 17.6-21.2c2-2.4 5.2-4 8.4-4.4 3.2-0.4 6.4 0.8 9.2 2.8l24.4 20.4c2.4 2 4 5.2 4.4 8.4 0.4 3.2-0.8 6.4-2.8 9.2l-17.6 21.2c0.8 1.2 1.2 2 2 3.2l27.2-4.8c6.8-1.2 13.2 3.2 14.4 10l5.6 31.2c0.4 3.2 0 6.4-2 9.2-2 2.8-4.8 4.4-8 5.2l-27.2 4.8c0 1.2-0.4 2.4-0.8 3.6l24 13.6c2.8 1.6 4.8 4.4 5.6 7.6 0.8 3.2 0.4 6.4-1.2 9.6l-15.6 27.2c-3.6 6-11.2 8-16.8 4.4l-24-13.6c-0.8 0.8-2 1.6-2.8 2.4l9.6 26c1.2 3.2 0.8 6.4-0.4 9.6s-4 5.2-7.2 6.4l-29.6 10.8c-6.4 2.4-13.6-0.8-16-7.6l-9.6-26h-3.6l-9.6 26c-2.8 5.2-7.6 8.4-12.8 8.4z m-33.2-68.4l2.8 2.4c1.2 1.2 2.4 2 3.6 3.2 1.2 1.2 2.8 2.4 4 3.2l3.2 2.4-12 32.8c-0.4 0.8 0 1.6 0 2s0.4 0.8 1.2 1.2l29.6 10.8c1.2 0.4 2.8-0.4 3.2-1.6l12-32.8 3.6 0.4c3.2 0.4 6.8 0.4 10 0l3.6-0.4 12 32.8c0.4 1.2 2 2 3.2 1.6l29.6-10.8c0.8-0.4 1.2-0.8 1.2-1.2s0.4-1.2 0-2l-12-32.8 3.2-2.4c2.8-2 5.2-4 7.6-6.4l2.8-2.4 30.4 17.6c1.2 0.8 2.8 0.4 3.2-0.8l15.6-27.2c0.4-0.8 0.4-1.6 0.4-2s-0.4-1.2-1.2-1.6l-30.4-17.6 0.8-3.6c0.8-3.2 1.2-6.4 1.6-10l0.4-3.6 34.4-6c0.8 0 1.2-0.8 1.6-1.2 0.4-0.4 0.4-0.8 0.4-2l-5.6-31.2c-0.4-1.2-1.6-2.4-2.8-2l-34.4 6-1.6-3.2c-1.6-3.2-3.2-6-4.8-8.8l-2-3.2 22.4-26.8c0.4-0.8 0.4-1.2 0.4-1.6 0-0.4 0-1.2-0.8-1.6l-24-20.4c-1.2-0.8-2.4-0.8-3.6 0.4l-22.4 26.8-3.6-1.6c-3.2-1.2-6-2.4-9.2-3.6l-3.6-1.2V688c0-1.2-1.2-2.4-2.4-2.4h-31.6c-1.2 0-2.4 1.2-2.4 2.4v34.8l-3.6 1.2c-3.2 0.8-6.4 2-9.2 3.6l-3.6 1.6-22.4-26.8c-0.8-1.2-2.4-1.2-3.6-0.4l-24 20.4c-0.8 0.4-0.8 1.2-0.8 1.6 0 0.4 0 1.2 0.4 1.6l22.4 26.8-2 3.2c-2 2.8-3.6 5.6-4.8 8.8l-1.6 3.2-34.4-6c-1.2-0.4-2.4 0.8-2.8 2l-5.6 31.2c0 0.8 0 1.6 0.4 2 0.4 0.4 0.8 0.8 1.6 1.2l34.4 6 0.4 3.6c0.4 3.2 0.8 6.4 1.6 10l0.8 3.6-30.4 17.6c-0.8 0.4-1.2 1.2-1.2 1.6s0 1.2 0.4 2l15.6 27.2c0.8 1.2 2 1.6 3.2 0.8l31.2-17.6z" fill="#333333" p-id="1746"></path><path d="M610.8 821.2c-8.4-16.4-6.4-37.2 6.8-52 17.2-19.2 46.4-20.8 65.6-4s20.8 46.4 4 65.6c-13.2 14.8-33.6 19.2-51.2 12.8" fill="#FFFFFF" p-id="1747"></path><path d="M652.4 852c-6 0-12-1.2-18-3.2-2.4-0.8-4-4-2.8-6.4 0.8-2.4 4-4 6.4-2.8 16 6 34.4 1.6 45.6-11.2 15.2-17.2 13.6-43.6-3.6-58.8-17.2-15.2-43.6-13.6-58.8 3.6-11.6 12.8-13.6 31.2-6 46.4 1.2 2.4 0.4 5.6-2.4 6.8-2.4 1.2-5.6 0.4-6.8-2.4-9.6-19.2-6.8-41.6 7.6-57.6 18.8-21.2 51.6-23.2 72.8-4.4 10.4 9.2 16.4 21.6 17.2 35.6 0.8 13.6-4 26.8-12.8 37.2-9.6 11.2-24 17.2-38.4 17.2z" fill="#333333" p-id="1748"></path><path d="M954.8 273.2l-6.8-39.6c-0.8-5.2-6-8.4-10.8-7.6l-39.2 6.8c-2-4-4.4-8-6.8-11.6l25.6-30.4c3.2-4 2.8-10-1.2-13.2l-30.8-26c-4-3.2-10-2.8-13.2 1.2l-25.6 30.4c-4-2-8.4-3.2-12.8-4.8v-39.6c0-5.2-4.4-9.6-9.6-9.6h-40.4c-5.2 0-9.6 4.4-9.6 9.6v39.6c-4.4 1.2-8.8 2.8-12.8 4.8l-25.6-30.4c-3.2-4-9.2-4.4-13.2-1.2l-30.8 26c-4 3.2-4.4 9.2-1.2 13.2l25.6 30.4c-2.4 3.6-4.8 7.6-6.8 11.6l-39.2-6.8c-5.2-0.8-10 2.4-10.8 7.6l-6.8 39.6c-0.8 5.2 2.4 10 7.6 10.8l39.2 6.8c0.4 4.4 1.2 8.8 2.4 13.2l-34.4 20c-4.4 2.8-6 8.4-3.6 12.8l20 34.8c2.8 4.4 8.4 6 12.8 3.6l34.4-20c1.6 1.6 3.2 2.8 4.8 4.4 2 1.6 3.6 3.2 5.6 4.4l-13.6 37.2c-1.6 4.8 0.8 10.4 5.6 12l37.6 13.6c4.8 1.6 10.4-0.8 12-5.6L796 384c2.4 0 4.4 0.4 6.8 0.4s4.4 0 6.8-0.4l13.6 37.2c1.6 4.8 7.2 7.6 12 5.6l37.6-13.6c4.8-1.6 7.6-7.2 5.6-12l-13.6-37.2c3.6-2.8 7.2-5.6 10.4-8.8l34.4 20c4.4 2.8 10.4 1.2 12.8-3.6l20-34.8c2.8-4.4 1.2-10.4-3.6-12.8l-34.4-20c1.2-4.4 2-8.8 2.4-13.2l39.2-6.8c6.4-0.8 9.6-5.6 8.8-10.8z" fill="#FFFFFF" p-id="1749"></path><path d="M832.8 434c-6.4 0-12.4-4-14.4-10l-12-33.2h-5.2l-12 33.2c-2.8 8-12 12-20 9.2l-37.6-13.6c-4-1.6-6.8-4.4-8.8-8-1.6-3.6-2-8-0.4-12l12-33.2c-0.8-0.8-1.6-1.2-2.4-2-0.4-0.4-1.2-0.8-1.6-1.2l-30.8 17.6c-7.2 4.4-16.8 1.6-21.2-5.6l-20-34.8c-2-3.6-2.8-7.6-1.6-11.6 1.2-4 3.6-7.2 7.2-9.2l30.4-17.6c-0.4-1.6-0.8-3.6-0.8-5.2l-34.8-6c-4-0.8-7.6-2.8-10-6.4-2.4-3.2-3.2-7.6-2.4-11.6l6.8-39.6c1.6-8.4 9.6-14 18-12.4l34.8 6c0.8-1.6 1.6-3.2 2.8-4.4l-22.8-27.2c-2.8-3.2-4-7.2-3.6-11.2 0.4-4 2.4-8 5.6-10.4l30.8-26c6.4-5.6 16.4-4.8 21.6 2l22.8 27.2c1.6-0.8 3.2-1.2 4.8-1.6V140c0-8.4 6.8-15.6 15.6-15.6H824c8.4 0 15.6 6.8 15.6 15.6v35.2c1.6 0.4 3.2 1.2 4.8 1.6l22.8-27.2c5.6-6.4 15.2-7.2 21.6-2l30.8 26c6.4 5.6 7.2 15.2 2 21.6l-22.8 27.2c0.8 1.6 1.6 3.2 2.8 4.4L936 220c4-0.8 8 0 11.6 2.4 3.2 2.4 5.6 6 6.4 10l6.8 39.6c0.8 4 0 8-2.4 11.6s-6 5.6-10 6.4l-34.8 6c-0.4 1.6-0.4 3.6-0.8 5.2l30.4 17.6c7.2 4.4 10 13.6 5.6 21.2l-20 34.8c-2 3.6-5.2 6-9.2 7.2-4 1.2-8 0.4-11.6-1.6l-30.8-17.6c-1.2 1.2-2.8 2.4-4 3.2l12 33.2c2.8 8-1.2 16.8-9.2 20l-37.6 13.6c-2 0.8-4 1.2-5.6 1.2z m-18.4-56l15.2 41.6c0.8 1.6 2.8 2.8 4.4 2l37.6-13.6c1.6-0.8 2.8-2.8 2-4.4l-15.2-41.6 3.6-2.8c3.2-2.4 6.8-5.2 9.6-8.4l3.2-3.2 38.4 22c0.8 0.4 1.6 0.4 2.8 0.4 0.8-0.4 1.6-0.8 2-1.6l20-34.8c0.8-1.6 0.4-3.6-1.2-4.8l-38.4-22 1.2-4.4c1.2-4 1.6-8.4 2.4-12.4l0.4-4.4 43.6-7.6c0.8 0 1.6-0.8 2.4-1.6 0.4-0.8 0.8-1.6 0.4-2.4l-6.8-39.6c0-0.8-0.8-1.6-1.6-2.4-0.8-0.4-1.6-0.8-2.4-0.4l-43.6 7.6-2-4c-2-4-4-7.6-6.4-11.2l-2.4-3.6 28.4-34c1.2-1.6 1.2-3.6-0.4-4.8l-30.8-26c-1.6-1.2-3.6-1.2-4.8 0.4l-28.4 34-4-2c-4-1.6-8-3.2-12-4.4l-4.4-1.2V138.8c0-2-1.6-3.6-3.6-3.6h-40.4c-2 0-3.6 1.6-3.6 3.6v44.4l-4.4 1.2c-4 1.2-8 2.8-12 4.4l-4 2-28.4-34c-1.2-1.6-3.6-1.6-4.8-0.4l-30.8 26c-0.8 0.4-1.2 1.6-1.2 2.4 0 0.8 0 2 0.8 2.4l28.4 34-2.4 3.6c-2.4 3.6-4.4 7.2-6.4 11.2l-2 4-43.6-7.6c-2-0.4-3.6 0.8-4 2.8l-6.8 39.6c0 0.8 0 2 0.4 2.4s1.2 1.2 2.4 1.6l43.6 7.6 0.4 4.4c0.4 4 1.2 8.4 2.4 12.4l1.2 4.4-38.4 22c-0.8 0.4-1.2 1.2-1.6 2-0.4 0.8 0 2 0.4 2.8l20 34.8c0.8 1.6 3.2 2.4 4.8 1.2l38.4-22 3.2 3.2c1.6 1.2 2.8 2.8 4.4 4 1.6 1.6 3.6 2.8 5.2 4.4l3.6 2.8-15.2 41.6c-0.4 0.8-0.4 1.6 0 2.8s1.2 1.6 2 1.6l37.6 13.6c1.6 0.8 3.6-0.4 4.4-2l15.2-41.6 4.4 0.4c4.4 0.4 8.4 0.4 12.8 0l4.8-1.2z" fill="#333333" p-id="1750"></path><path d="M744.4 279.2a59.2 51.2 90 1 0 102.4 0 59.2 51.2 90 1 0-102.4 0Z" fill="#EA435A" p-id="1751"></path><path d="M803.6 344.8c-36 0-65.2-29.2-65.2-65.2s29.2-65.2 65.2-65.2 65.2 29.2 65.2 65.2-29.2 65.2-65.2 65.2z m0-118.4c-29.2 0-53.2 24-53.2 53.2s24 53.2 53.2 53.2 53.2-24 53.2-53.2-24-53.2-53.2-53.2z" fill="#333333" p-id="1752"></path></svg>