<?xml version="1.0" standalone="no"?><!DOCTYPE svg PUBLIC "-//W3C//DTD SVG 1.1//EN" "http://www.w3.org/Graphics/SVG/1.1/DTD/svg11.dtd"><svg t="1554175784368" class="icon" style="" viewBox="0 0 1377 1024" version="1.1" xmlns="http://www.w3.org/2000/svg" p-id="1419" xmlns:xlink="http://www.w3.org/1999/xlink" width="268.9453125" height="200"><defs><style type="text/css"></style></defs><path d="M468.474214 244.59919m-244.59919 0a244.59919 244.59919 0 1 0 489.198381 0 244.59919 244.59919 0 1 0-489.198381 0Z" p-id="1420"></path><path d="M1372.247494 526.510121L1260.312271 414.574899l-186.558704 186.558704-190.704454-186.558704-111.935222 111.935222 190.704453 186.558705-190.704453 186.558704 111.935222 111.935223 190.704454-186.558704 186.558704 186.558704 111.935223-111.935223-186.558705-186.558704z" p-id="1421"></path><path d="M713.073405 899.62753l178.267206-178.267206V704.777328v-4.145749l-178.267206-178.267207 49.748988-49.748987-37.311741-12.437247c-20.728745-4.145749-45.603239 0-62.186235 16.582996-37.311741 29.020243-116.080972 82.91498-211.433198 82.914979s-157.538462-49.748988-190.704454-78.76923c-16.582996-16.582996-41.45749-24.874494-62.186235-20.728745-111.935223 24.874494-198.995951 124.37247-198.995951 248.744939v66.331984c0 136.809717-4.145749 244.59919 240.453441 248.744939h406.283401c70.477733 0 120.226721-12.437247 153.392713-29.020243l-87.060729-95.352227z" p-id="1422"></path></svg>