<?xml version="1.0" standalone="no"?><!DOCTYPE svg PUBLIC "-//W3C//DTD SVG 1.1//EN" "http://www.w3.org/Graphics/SVG/1.1/DTD/svg11.dtd"><svg t="1554133638356" class="icon" style="" viewBox="0 0 1024 1024" version="1.1" xmlns="http://www.w3.org/2000/svg" p-id="2460" xmlns:xlink="http://www.w3.org/1999/xlink" width="200" height="200"><defs><style type="text/css"></style></defs><path d="M633.286021 206.915228c-6.383475 25.533899-12.76695 44.684323-12.76695 70.218223 0 25.533899 25.533899 51.067798 51.067798 51.067798L895.008487 321.817774c63.834748 0 114.902546 51.067798 114.902546 114.902546V449.48727l-44.684324 465.993659c-6.383475 57.451273-57.451273 108.519071-114.902546 108.519071H122.608038c-63.834748 0-114.902546-51.067798-114.902546-114.902546V513.322018c0-63.834748 51.067798-114.902546 114.902546-114.902546h38.300849c57.451273 0 114.902546-12.76695 134.05297-38.300849 38.300849-44.684323 63.834748-102.135596 82.985173-172.353819 6.383475-19.150424 6.383475-38.300849 12.766949-51.067798l6.383475-25.533899c6.383475-19.150424 6.383475-44.684323 25.533899-63.834748C448.165252 21.79446 473.699151 9.02751 499.23305 2.644035c19.150424-6.383475 44.684323 0 63.834748 6.383475 31.917374 12.76695 57.451273 44.684323 63.834748 82.985172 6.383475 19.150424 12.76695 38.300849 12.76695 51.067798 0 19.150424 0 38.300849-6.383475 57.451273" fill="#12b89c" p-id="2461"></path><path d="M211.976685 992.082626c-19.150424 0-31.917374-12.76695-31.917374-31.917374V462.254219c0-19.150424 12.76695-31.917374 31.917374-31.917374s31.917374 12.76695 31.917374 31.917374V960.165252c0 19.150424-19.150424 31.917374-31.917374 31.917374z" fill="#FFFFFF" p-id="2462"></path></svg>